<svg width="29" height="29" viewBox="0 0 29 29" fill="none" xmlns="http://www.w3.org/2000/svg">
<path d="M19 28.0001V16.632C19 16.2551 18.842 15.8936 18.5607 15.6271C18.2794 15.3607 17.8978 15.2109 17.5 15.2109H11.5C11.1022 15.2109 10.7206 15.3607 10.4393 15.6271C10.158 15.8936 10 16.2551 10 16.632V28.0001" stroke="white" stroke-width="2" stroke-linecap="round" stroke-linejoin="round"/>
<path d="M1 12.3688C0.999895 11.9554 1.095 11.5469 1.27868 11.1719C1.46236 10.7969 1.7302 10.4644 2.0635 10.1975L12.5635 1.6714C13.105 1.23786 13.791 1 14.5 1C15.209 1 15.895 1.23786 16.4365 1.6714L26.9365 10.1975C27.2698 10.4644 27.5376 10.7969 27.7213 11.1719C27.905 11.5469 28.0001 11.9554 28 12.3688V25.1579C28 25.9117 27.6839 26.6346 27.1213 27.1675C26.5587 27.7005 25.7956 28 25 28H4C3.20435 28 2.44129 27.7005 1.87868 27.1675C1.31607 26.6346 1 25.9117 1 25.1579V12.3688Z" stroke="white" stroke-width="2" stroke-linecap="round" stroke-linejoin="round"/>
</svg>
