<svg width="184" height="184" viewBox="0 0 184 184" fill="none" xmlns="http://www.w3.org/2000/svg">
<path d="M30.6667 153.333C26.45 153.333 22.8416 151.833 19.8413 148.833C16.8411 145.833 15.3385 142.222 15.3333 138V122.667C15.3333 120.494 16.0693 118.675 17.5413 117.208C19.0133 115.741 20.8329 115.005 23 115C25.1671 114.995 26.9892 115.731 28.4663 117.208C29.9435 118.685 30.6769 120.505 30.6667 122.667V138H153.333V46H30.6667V61.3333C30.6667 63.5055 29.9307 65.3276 28.4587 66.7996C26.9867 68.2716 25.1671 69.0051 23 69C20.8329 68.9948 19.0133 68.2588 17.5413 66.792C16.0693 65.3251 15.3333 63.5055 15.3333 61.3333V46C15.3333 41.7833 16.836 38.1748 19.8413 35.1746C22.8467 32.1744 26.4551 30.6717 30.6667 30.6666H153.333C157.55 30.6666 161.161 32.1693 164.166 35.1746C167.172 38.18 168.672 41.7884 168.667 46V138C168.667 142.217 167.167 145.828 164.166 148.833C161.166 151.838 157.555 153.338 153.333 153.333H30.6667ZM93.3417 99.6666H23C20.8278 99.6666 19.0082 98.9306 17.5413 97.4586C16.0745 95.9866 15.3385 94.1671 15.3333 92C15.3282 89.8328 16.0642 88.0133 17.5413 86.5413C19.0185 85.0693 20.838 84.3333 23 84.3333H93.3417L82.8 73.9833C81.2667 72.5777 80.5307 70.8221 80.592 68.7163C80.6533 66.6105 81.3893 64.7884 82.8 63.25C84.3333 61.7166 86.1554 60.9193 88.2663 60.858C90.3772 60.7966 92.1968 61.5301 93.725 63.0583L117.3 86.6333C118.833 88.1666 119.6 89.9555 119.6 92C119.6 94.0444 118.833 95.8333 117.3 97.3666L93.725 120.942C92.1917 122.475 90.3721 123.242 88.2663 123.242C86.1606 123.242 84.3385 122.475 82.8 120.942C81.3945 119.408 80.6585 117.589 80.592 115.483C80.5256 113.377 81.2616 111.555 82.8 110.017L93.3417 99.6666Z" fill="#A33D23"/>
</svg>
